<svg width="64" height="48" viewBox="0 0 64 48" fill="none" xmlns="http://www.w3.org/2000/svg">
<path d="M39.4125 0.599992C38.075 1.07499 37.2375 1.92499 36.9375 3.09999C36.7625 3.76249 37.0125 3.64999 34.5 4.12499C28.05 5.32499 22.4625 8.19999 19.4125 11.9C16.175 15.825 13.6625 22.2625 12.7375 29.0375L12.5875 30.1375L10.3875 31.6625C9.175 32.5125 7.2625 33.85 6.125 34.625C2.0875 37.4 0.512506 38.6875 0.175006 39.4625C-0.0749936 40.0375 -0.0374936 40.6125 0.287506 41.175C0.850006 42.1875 2 42.45 3.2 41.8375C5.025 40.8875 8.1125 40.6625 11.875 41.2C15.6625 41.7375 17.7625 42.5625 21.3375 44.9C22.3875 45.575 23.6125 46.3 24.05 46.5C26.825 47.7625 30.85 47.9625 35.325 47.0625C40.6875 45.975 46.1 42.65 50.025 38.025L50.925 36.975L52.175 37.0625C52.875 37.1 54.2875 37.2375 55.3125 37.35C57.8625 37.6375 59.1124 37.6125 60.0624 37.25C60.9374 36.925 61.7999 36.1125 62.2249 35.225C62.9749 33.7 63.3249 29.025 62.9999 25.25C62.4374 18.8875 59.7374 13.55 55.125 9.69999C52.95 7.87499 49.725 6.06249 46.7875 4.98749L45.2625 4.43749L45.1875 3.81249C44.925 1.79999 43.4 0.524992 41.1375 0.412492C40.3125 0.374992 39.9125 0.424992 39.4125 0.599992ZM42.0875 2.73749C42.575 2.96249 43.1125 3.54999 42.9625 3.69999C42.925 3.73749 42.65 3.69999 42.3625 3.61249C42.0625 3.52499 41.2125 3.44999 40.475 3.44999C39.725 3.44999 39.125 3.41249 39.125 3.37499C39.125 3.23749 39.6875 2.76249 40 2.63749C40.5125 2.43749 41.525 2.48749 42.0875 2.73749ZM41.4375 6.01249C41.775 6.22499 42.3875 6.74999 42.8125 7.17499C45.125 9.48749 46.2875 12.6 46.65 17.4625C46.875 20.4 46.5375 24.55 45.75 28.6875C45.4125 30.45 44.5 34.1625 44.375 34.2875C44.1875 34.5 38.475 33.4 33.4375 32.1875C30.75 31.525 25.1375 30.2 24.55 30.0625L24.2875 30L24.5125 28.5125C25.825 19.95 29.15 12.825 33.6 9.09999C35.4625 7.52499 37.4 6.47499 39.5 5.87499C40.6125 5.56249 40.7375 5.56249 41.4375 6.01249ZM33 6.83749C32.1375 7.48749 29.5375 10.2125 28.8 11.25C25.7875 15.45 23.625 21.15 22.55 27.6625C22.3625 28.775 22.2 29.7 22.1875 29.725C22.175 29.7375 21.6375 29.7 21 29.625C20.3625 29.55 18.7125 29.4875 17.35 29.5H14.8625L14.9375 29.025C15.925 23.0125 17.5375 18.4 19.925 14.8125C22.3625 11.1625 26.3125 8.54999 31.8625 6.93749C32.6625 6.69999 33.3375 6.51249 33.375 6.51249C33.4125 6.49999 33.2375 6.64999 33 6.83749ZM46.2125 7.01249C52.0375 9.17499 56.3125 12.725 58.6875 17.4C60.4249 20.825 61.0999 24.3375 60.9624 29.2375C60.8874 31.975 60.6249 33.8 60.2124 34.55C59.6624 35.525 58.9249 35.6625 55.9125 35.3125C55.0375 35.2125 52.7125 35.0375 50.75 34.9375C48.7875 34.8375 47.0375 34.7125 46.8625 34.675L46.5375 34.6125L46.8875 33.275C47.0875 32.5375 47.4125 31.15 47.6125 30.1875C49.6625 20.375 49.1375 12.7125 46.0625 7.81249C45.6875 7.22499 45.4125 6.74999 45.4375 6.74999C45.4625 6.74999 45.8125 6.87499 46.2125 7.01249ZM20.875 31.6875C23.8 32.025 25.35 32.35 34.4375 34.5625C39.6125 35.8125 44 36.6125 46.9125 36.825C47.575 36.875 48.125 36.9625 48.125 37.0125C48.125 37.2 46.375 38.9875 45.3625 39.825C40.825 43.6 34.9 45.6875 29.3125 45.4625C28.425 45.425 27.2625 45.3 26.75 45.1875C25.475 44.9 23.8375 44.1125 22.1875 42.975C20.3375 41.725 19.275 41.1125 17.9625 40.5625C13.7 38.8 6.7875 38.275 3.35 39.4375C2.9875 39.5625 2.875 39.575 3 39.4625C3.7375 38.875 5.6125 37.5375 8.1875 35.775C9.8375 34.6375 11.8375 33.2625 12.625 32.7C13.725 31.925 14.1875 31.675 14.625 31.6125C15.7 31.4625 19.325 31.5 20.875 31.6875Z" fill="#CCCCCC"/>
</svg>
